<mxfile host="app.diagrams.net" agent="Mozilla/5.0 (Windows NT 10.0; Win64; x64; rv:133.0) Gecko/20100101 Firefox/133.0" version="24.8.6">
  <diagram id="6a731a19-8d31-9384-78a2-239565b7b9f0" name="Page-1">
    <mxGraphModel dx="1000" dy="531" grid="1" gridSize="10" guides="1" tooltips="1" connect="1" arrows="1" fold="1" page="1" pageScale="1" pageWidth="3000" pageHeight="3000" background="none" math="0" shadow="0">
      <root>
        <mxCell id="0" />
        <mxCell id="1" parent="0" />
        <mxCell id="FubYLD9fZpOXAevbdcCf-57" value="" style="edgeStyle=orthogonalEdgeStyle;rounded=0;orthogonalLoop=1;jettySize=auto;html=1;entryX=0.5;entryY=0;entryDx=0;entryDy=0;" edge="1" parent="1" source="FubYLD9fZpOXAevbdcCf-55" target="FubYLD9fZpOXAevbdcCf-58">
          <mxGeometry relative="1" as="geometry">
            <mxPoint x="305" y="179.9999999999999" as="targetPoint" />
          </mxGeometry>
        </mxCell>
        <mxCell id="FubYLD9fZpOXAevbdcCf-55" value="START" style="ellipse;whiteSpace=wrap;html=1;" vertex="1" parent="1">
          <mxGeometry x="245" y="70" width="120" height="80" as="geometry" />
        </mxCell>
        <mxCell id="FubYLD9fZpOXAevbdcCf-61" value="" style="edgeStyle=orthogonalEdgeStyle;rounded=0;orthogonalLoop=1;jettySize=auto;html=1;" edge="1" parent="1" source="FubYLD9fZpOXAevbdcCf-58" target="FubYLD9fZpOXAevbdcCf-60">
          <mxGeometry relative="1" as="geometry" />
        </mxCell>
        <mxCell id="FubYLD9fZpOXAevbdcCf-58" value="&lt;font style=&quot;font-size: 12px;&quot;&gt;INIT CLASS Equipment&lt;/font&gt;" style="shape=hexagon;perimeter=hexagonPerimeter2;whiteSpace=wrap;html=1;fixedSize=1;" vertex="1" parent="1">
          <mxGeometry x="245" y="180" width="120" height="80" as="geometry" />
        </mxCell>
        <mxCell id="FubYLD9fZpOXAevbdcCf-63" value="" style="edgeStyle=orthogonalEdgeStyle;rounded=0;orthogonalLoop=1;jettySize=auto;html=1;" edge="1" parent="1" source="FubYLD9fZpOXAevbdcCf-60" target="FubYLD9fZpOXAevbdcCf-62">
          <mxGeometry relative="1" as="geometry" />
        </mxCell>
        <mxCell id="FubYLD9fZpOXAevbdcCf-60" value="&lt;font style=&quot;font-size: 12px;&quot;&gt;INIT EquipmentList = {&lt;/font&gt;&lt;font style=&quot;font-size: 12px;&quot;&gt;Equipment.Id, &lt;/font&gt;&lt;font style=&quot;font-size: 12px;&quot;&gt;Equipment.Name...&lt;/font&gt;&lt;font style=&quot;font-size: 12px;&quot;&gt;}&lt;br&gt;&lt;/font&gt;" style="shape=hexagon;perimeter=hexagonPerimeter2;whiteSpace=wrap;html=1;fixedSize=1;" vertex="1" parent="1">
          <mxGeometry x="235" y="290" width="140" height="80" as="geometry" />
        </mxCell>
        <mxCell id="FubYLD9fZpOXAevbdcCf-69" value="" style="edgeStyle=orthogonalEdgeStyle;rounded=0;orthogonalLoop=1;jettySize=auto;html=1;" edge="1" parent="1" source="FubYLD9fZpOXAevbdcCf-62" target="FubYLD9fZpOXAevbdcCf-68">
          <mxGeometry relative="1" as="geometry" />
        </mxCell>
        <mxCell id="FubYLD9fZpOXAevbdcCf-62" value="&lt;font style=&quot;font-size: 12px;&quot;&gt;PRINT &quot;Peripheral List&quot;&lt;br&gt;&lt;/font&gt;" style="shape=parallelogram;perimeter=parallelogramPerimeter;whiteSpace=wrap;html=1;fixedSize=1;" vertex="1" parent="1">
          <mxGeometry x="230" y="400" width="150" height="70" as="geometry" />
        </mxCell>
        <mxCell id="FubYLD9fZpOXAevbdcCf-72" style="edgeStyle=orthogonalEdgeStyle;rounded=0;orthogonalLoop=1;jettySize=auto;html=1;exitX=1;exitY=0.5;exitDx=0;exitDy=0;entryX=1;entryY=0.5;entryDx=0;entryDy=0;" edge="1" parent="1" source="FubYLD9fZpOXAevbdcCf-66" target="FubYLD9fZpOXAevbdcCf-68">
          <mxGeometry relative="1" as="geometry">
            <Array as="points">
              <mxPoint x="420" y="708" />
              <mxPoint x="420" y="568" />
            </Array>
          </mxGeometry>
        </mxCell>
        <mxCell id="FubYLD9fZpOXAevbdcCf-66" value="&lt;div&gt;PRINT Id, Name, Status,BorrowedBy, Notes&lt;br&gt;&lt;/div&gt;" style="shape=parallelogram;perimeter=parallelogramPerimeter;whiteSpace=wrap;html=1;fixedSize=1;" vertex="1" parent="1">
          <mxGeometry x="225" y="670" width="160" height="75" as="geometry" />
        </mxCell>
        <mxCell id="FubYLD9fZpOXAevbdcCf-70" value="True" style="edgeStyle=orthogonalEdgeStyle;rounded=0;orthogonalLoop=1;jettySize=auto;html=1;exitX=0.5;exitY=1;exitDx=0;exitDy=0;entryX=0.5;entryY=0;entryDx=0;entryDy=0;" edge="1" parent="1" source="FubYLD9fZpOXAevbdcCf-68" target="FubYLD9fZpOXAevbdcCf-66">
          <mxGeometry relative="1" as="geometry" />
        </mxCell>
        <mxCell id="FubYLD9fZpOXAevbdcCf-73" value="False" style="edgeStyle=orthogonalEdgeStyle;rounded=0;orthogonalLoop=1;jettySize=auto;html=1;exitX=0;exitY=0.5;exitDx=0;exitDy=0;" edge="1" parent="1" source="FubYLD9fZpOXAevbdcCf-68" target="FubYLD9fZpOXAevbdcCf-74">
          <mxGeometry x="-0.3658" relative="1" as="geometry">
            <mxPoint x="200" y="820" as="targetPoint" />
            <Array as="points">
              <mxPoint x="200" y="568" />
              <mxPoint x="200" y="780" />
              <mxPoint x="310" y="780" />
            </Array>
            <mxPoint as="offset" />
          </mxGeometry>
        </mxCell>
        <mxCell id="FubYLD9fZpOXAevbdcCf-68" value="Any elements in EquipmentList?" style="rhombus;whiteSpace=wrap;html=1;" vertex="1" parent="1">
          <mxGeometry x="247.5" y="510" width="115" height="115" as="geometry" />
        </mxCell>
        <mxCell id="FubYLD9fZpOXAevbdcCf-78" value="True" style="edgeStyle=orthogonalEdgeStyle;rounded=0;orthogonalLoop=1;jettySize=auto;html=1;exitX=0.5;exitY=1;exitDx=0;exitDy=0;entryX=0.5;entryY=0;entryDx=0;entryDy=0;" edge="1" parent="1" source="FubYLD9fZpOXAevbdcCf-74" target="FubYLD9fZpOXAevbdcCf-77">
          <mxGeometry relative="1" as="geometry" />
        </mxCell>
        <mxCell id="FubYLD9fZpOXAevbdcCf-74" value="IsAdmin?" style="rhombus;whiteSpace=wrap;html=1;" vertex="1" parent="1">
          <mxGeometry x="270" y="800" width="80" height="80" as="geometry" />
        </mxCell>
        <mxCell id="FubYLD9fZpOXAevbdcCf-91" value="" style="edgeStyle=orthogonalEdgeStyle;rounded=0;orthogonalLoop=1;jettySize=auto;html=1;" edge="1" parent="1" source="FubYLD9fZpOXAevbdcCf-77" target="FubYLD9fZpOXAevbdcCf-90">
          <mxGeometry relative="1" as="geometry" />
        </mxCell>
        <mxCell id="FubYLD9fZpOXAevbdcCf-77" value="PRINT &quot;Update Equipment? (Y/N)&quot;" style="shape=parallelogram;perimeter=parallelogramPerimeter;whiteSpace=wrap;html=1;fixedSize=1;" vertex="1" parent="1">
          <mxGeometry x="239.85" y="930" width="140.15" height="60" as="geometry" />
        </mxCell>
        <mxCell id="FubYLD9fZpOXAevbdcCf-85" value="False" style="edgeStyle=orthogonalEdgeStyle;rounded=0;orthogonalLoop=1;jettySize=auto;html=1;" edge="1" parent="1" source="FubYLD9fZpOXAevbdcCf-83" target="FubYLD9fZpOXAevbdcCf-84">
          <mxGeometry relative="1" as="geometry" />
        </mxCell>
        <mxCell id="FubYLD9fZpOXAevbdcCf-94" value="True" style="edgeStyle=orthogonalEdgeStyle;rounded=0;orthogonalLoop=1;jettySize=auto;html=1;" edge="1" parent="1" source="FubYLD9fZpOXAevbdcCf-83" target="FubYLD9fZpOXAevbdcCf-93">
          <mxGeometry relative="1" as="geometry" />
        </mxCell>
        <mxCell id="FubYLD9fZpOXAevbdcCf-83" value="CASE &quot;Y&quot;" style="rhombus;whiteSpace=wrap;html=1;" vertex="1" parent="1">
          <mxGeometry x="269.88499999999993" y="1110" width="80" height="80" as="geometry" />
        </mxCell>
        <mxCell id="FubYLD9fZpOXAevbdcCf-87" value="False" style="edgeStyle=orthogonalEdgeStyle;rounded=0;orthogonalLoop=1;jettySize=auto;html=1;" edge="1" parent="1" source="FubYLD9fZpOXAevbdcCf-84" target="FubYLD9fZpOXAevbdcCf-86">
          <mxGeometry relative="1" as="geometry" />
        </mxCell>
        <mxCell id="FubYLD9fZpOXAevbdcCf-96" value="True" style="edgeStyle=orthogonalEdgeStyle;rounded=0;orthogonalLoop=1;jettySize=auto;html=1;" edge="1" parent="1" source="FubYLD9fZpOXAevbdcCf-84" target="FubYLD9fZpOXAevbdcCf-95">
          <mxGeometry relative="1" as="geometry" />
        </mxCell>
        <mxCell id="FubYLD9fZpOXAevbdcCf-84" value="CASE &quot;N&quot;" style="rhombus;whiteSpace=wrap;html=1;" vertex="1" parent="1">
          <mxGeometry x="269.9649999999999" y="1230" width="80" height="80" as="geometry" />
        </mxCell>
        <mxCell id="FubYLD9fZpOXAevbdcCf-98" value="True" style="edgeStyle=orthogonalEdgeStyle;rounded=0;orthogonalLoop=1;jettySize=auto;html=1;" edge="1" parent="1" source="FubYLD9fZpOXAevbdcCf-86" target="FubYLD9fZpOXAevbdcCf-97">
          <mxGeometry relative="1" as="geometry" />
        </mxCell>
        <mxCell id="FubYLD9fZpOXAevbdcCf-86" value="DEFAULT" style="rhombus;whiteSpace=wrap;html=1;" vertex="1" parent="1">
          <mxGeometry x="269.9649999999999" y="1360" width="80" height="80" as="geometry" />
        </mxCell>
        <mxCell id="FubYLD9fZpOXAevbdcCf-92" value="" style="edgeStyle=orthogonalEdgeStyle;rounded=0;orthogonalLoop=1;jettySize=auto;html=1;" edge="1" parent="1" source="FubYLD9fZpOXAevbdcCf-90" target="FubYLD9fZpOXAevbdcCf-83">
          <mxGeometry relative="1" as="geometry" />
        </mxCell>
        <mxCell id="FubYLD9fZpOXAevbdcCf-90" value="INPUT DoUpdate" style="shape=parallelogram;perimeter=parallelogramPerimeter;whiteSpace=wrap;html=1;fixedSize=1;" vertex="1" parent="1">
          <mxGeometry x="239.92" y="1020" width="140.15" height="60" as="geometry" />
        </mxCell>
        <mxCell id="FubYLD9fZpOXAevbdcCf-93" value="PRINT &quot;Enter Equipment ID to update&quot;" style="shape=parallelogram;perimeter=parallelogramPerimeter;whiteSpace=wrap;html=1;fixedSize=1;" vertex="1" parent="1">
          <mxGeometry x="450" y="1110" width="190" height="80" as="geometry" />
        </mxCell>
        <mxCell id="FubYLD9fZpOXAevbdcCf-95" value="A" style="ellipse;whiteSpace=wrap;html=1;" vertex="1" parent="1">
          <mxGeometry x="450" y="1240" width="60.04" height="60" as="geometry" />
        </mxCell>
        <mxCell id="FubYLD9fZpOXAevbdcCf-97" value="PRINT &quot;Invalid Input&quot;" style="shape=parallelogram;perimeter=parallelogramPerimeter;whiteSpace=wrap;html=1;fixedSize=1;" vertex="1" parent="1">
          <mxGeometry x="450" y="1370" width="150.04" height="60" as="geometry" />
        </mxCell>
      </root>
    </mxGraphModel>
  </diagram>
</mxfile>
